<?xml version="1.0" standalone="no"?>
<!DOCTYPE svg PUBLIC "-//W3C//DTD SVG 20010904//EN"
 "http://www.w3.org/TR/2001/REC-SVG-20010904/DTD/svg10.dtd">
<svg version="1.0" xmlns="http://www.w3.org/2000/svg"
 width="200.000000pt" height="200.000000pt" viewBox="0 0 200.000000 200.000000"
 preserveAspectRatio="xMidYMid meet">
<metadata>
Created by potrace 1.14, written by Peter Selinger 2001-2017
</metadata>
<g transform="translate(0.000000,200.000000) scale(0.100000,-0.100000)"
fill="#000000" stroke="none">
<path d="M116 1354 l-26 -27 0 -244 c0 -248 3 -273 39 -300 11 -8 63 -12 164
-13 81 0 147 -3 147 -7 0 -18 -53 -98 -73 -112 -12 -9 -32 -14 -44 -13 -25 4
-44 -25 -25 -37 14 -8 475 -6 490 2 21 14 1 37 -32 37 -21 0 -40 8 -53 23 -23
24 -53 80 -53 97 0 6 51 10 145 10 142 0 147 1 170 25 14 13 25 34 26 47 1 13
2 122 3 243 1 231 -4 263 -43 285 -13 6 -163 10 -414 10 l-394 0 -27 -26z
m817 -25 c15 -9 17 -29 17 -204 l0 -195 -410 0 -410 0 3 195 c2 156 5 198 16
204 19 12 761 11 784 0z m17 -469 c0 -19 -7 -33 -19 -40 -21 -10 -774 -10
-785 1 -3 3 -9 20 -12 37 l-7 32 412 0 411 -1 0 -29z m-344 -107 c2 -10 16
-39 29 -65 17 -33 21 -48 12 -49 -50 -3 -208 -1 -213 3 -2 3 7 27 21 53 14 26
25 54 25 61 0 10 16 14 60 14 49 0 62 -3 66 -17z"/>
<path d="M527 863 c-14 -13 -6 -33 13 -33 13 0 20 7 20 20 0 19 -20 27 -33 13z"/>
<path d="M1720 1194 c-36 -23 -102 -108 -145 -186 -39 -71 -53 -154 -33 -191
24 -46 99 -51 204 -13 l42 14 -3 -55 c-2 -40 2 -56 12 -60 28 -11 34 15 34
150 l0 137 32 0 c42 0 66 15 50 31 -7 7 -50 11 -123 10 -120 -2 -140 -6 -140
-27 0 -16 5 -17 83 -14 l57 2 0 -62 0 -61 -45 -20 c-65 -29 -137 -36 -154 -15
-17 20 -17 68 0 110 22 54 97 164 140 204 23 22 39 45 35 51 -9 14 -16 14 -46
-5z"/>
<path d="M1238 1042 c-62 -129 -75 -150 -102 -161 -28 -10 -29 -13 -14 -24 11
-9 14 -22 11 -40 -4 -22 -2 -27 15 -27 14 0 24 10 33 33 12 33 15 35 119 58
l106 25 27 -48 c19 -33 33 -48 48 -48 17 0 19 4 13 23 -3 12 -15 34 -26 49
-17 25 -17 27 -2 36 22 12 11 44 -13 40 -14 -2 -25 16 -51 82 -51 131 -60 150
-77 150 -11 0 -40 -50 -87 -148z m121 -11 c17 -47 31 -86 31 -87 0 -5 -150
-36 -158 -32 -5 1 13 49 41 105 28 57 52 102 53 100 1 -1 16 -40 33 -86z"/>
</g>
</svg>
